Coordinates
version=1
nRows=8
nColumns=40
inDegrees=yes

Units are S.I. units (second, meters, Newtons, ...)
Angles are in degrees.

endheader
time	pelvis_tilt	pelvis_list	pelvis_rotation	pelvis_tx	pelvis_ty	pelvis_tz	hip_flexion_r	hip_adduction_r	hip_rotation_r	knee_angle_r	knee_angle_r_beta	ankle_angle_r	subtalar_angle_r	mtp_angle_r	hip_flexion_l	hip_adduction_l	hip_rotation_l	knee_angle_l	knee_angle_l_beta	ankle_angle_l	subtalar_angle_l	mtp_angle_l	lumbar_extension	lumbar_bending	lumbar_rotation	arm_flex_r	arm_add_r	arm_rot_r	elbow_flex_r	pro_sup_r	wrist_flex_r	wrist_dev_r	arm_flex_l	arm_add_l	arm_rot_l	elbow_flex_l	pro_sup_l	wrist_flex_l	wrist_dev_l
     57.76000000	     -5.73179553	     -4.74871045	     -4.24154400	      1.08479406	      0.92157508	      0.45665597	     30.35830874	     -0.64918595	    -14.90266527	     13.00299533	     13.00299533	      3.11192233	      5.84021009	     11.85243669	      0.35358857	     -6.14758309	    -11.01550464	     12.75944740	     12.75944740	     18.25871332	     -5.50705823	     -4.11871895	    -12.48411405	      5.50040392	      2.28184991	    -12.24975845	    -15.41192228	     -5.28674125	     27.70930040	     46.74734446	      0.00000000	      0.00000000	     22.18137583	    -19.27587900	     -6.17530826	    106.02775317	     48.13929456	      0.00000000	      0.00000000
     57.77171429	     -5.69977325	     -4.60973980	     -4.12376927	      1.08656570	      0.91947288	      0.45852441	     29.91780613	     -0.45369209	    -15.68791265	     12.39113132	     12.39113132	      3.13041586	      6.43269289	     11.77974534	     -0.37985494	     -6.11445785	    -11.09894763	     12.78087595	     12.78087595	     18.87225142	     -5.14305551	     -4.17609125	    -12.28647688	      5.32385783	      2.30792763	    -13.80481910	    -15.16491231	     -5.32969753	     27.78933848	     46.72302255	      0.00000000	      0.00000000	     23.04045010	    -19.28422715	     -5.97028971	    107.71950470	     48.17747200	      0.00000000	      0.00000000
     57.78342857	     -5.65154334	     -4.52148891	     -3.98738315	      1.08850328	      0.91731127	      0.46065061	     29.48903746	     -0.24386794	    -16.34339408	     12.22501833	     12.22501833	      2.46187918	      6.74251941	      9.54665696	     -0.96378405	     -6.26185304	    -11.54852852	     13.22688093	     13.22688093	     20.09111053	     -4.03605020	     -3.35990538	    -12.11501663	      5.20748539	      2.42989227	    -15.94315262	    -14.91156367	     -5.75258158	     29.82846717	     46.60409950	      0.00000000	      0.00000000	     23.78602952	    -19.49110322	     -5.29261987	    109.38851898	     48.23363389	      0.00000000	      0.00000000
     57.79514286	     -5.67446524	     -4.45419752	     -3.84101985	      1.09039029	      0.91527144	      0.46282791	     29.24902635	     -0.06291276	    -16.60099515	     12.60438286	     12.60438286	      2.15598010	      6.59394529	      8.67800718	     -1.51099541	     -6.36298696	    -11.49411221	     13.50688279	     13.50688279	     20.68714452	     -3.90266235	     -3.30779490	    -11.84539103	      5.11193723	      2.56242502	    -17.13973979	    -14.55853917	     -5.72479586	     29.57859726	     46.59274374	      0.00000000	      0.00000000	     24.42257558	    -19.10924802	     -5.15498359	    110.77262670	     48.27084150	      0.00000000	      0.00000000
     57.80685714	     -5.66473857	     -4.50657257	     -3.62866520	      1.09236237	      0.91348628	      0.46514595	     28.98054389	      0.16714264	    -16.76430385	     13.27120846	     13.27120846	      1.89636714	      6.28469386	      8.04552547	     -2.07123338	     -6.62204484	    -11.34522584	     13.82101217	     13.82101217	     21.17445884	     -3.84199260	     -3.33841936	    -11.59633049	      5.17912870	      2.45343377	    -18.01044404	    -14.18069742	     -5.69939244	     29.38094654	     46.58760308	      0.00000000	      0.00000000	     24.80702979	    -19.12236924	     -5.15339501	    111.54006066	     48.29425897	      0.00000000	      0.00000000
     57.81857143	     -5.73745157	     -4.46214318	     -3.50149289	      1.09426770	      0.91149198	      0.46773738	     28.90473147	      0.35682471	    -16.34319594	     14.11680709	     14.11680709	      0.36726310	      5.13862671	      3.49025264	     -2.22277538	     -6.95356971	    -11.74370075	     14.84590008	     14.84590008	     22.28874268	     -2.98353905	     -2.56901930	    -11.35493654	      5.06448942	      2.54746883	    -18.93614541	    -13.76471897	     -5.86610808	     29.80340054	     46.55188994	      0.00000000	      0.00000000	     24.85830279	    -19.02178849	     -4.54957486	    113.61279737	     48.33613610	      0.00000000	      0.00000000
     57.83028571	     -5.62872541	     -4.49753856	     -3.30906334	      1.09632051	      0.91014954	      0.47040722	     28.49293848	      0.63012640	    -15.77311091	     14.76588660	     14.76588660	     -1.37367506	      3.66559237	     -1.68234281	     -2.58366315	     -7.34143728	    -11.81026867	     15.81950368	     15.81950368	     23.16197666	     -2.54584800	     -1.73510736	    -11.26836648	      5.05233444	      2.45182831	    -19.37117180	    -13.38270886	     -5.86623579	     29.71344824	     46.51865228	      0.00000000	      0.00000000	     24.89347778	    -18.81580681	     -4.64343974	    114.44104495	     48.42477002	      0.00000000	      0.00000000
     57.84200000	     -5.54188500	     -4.57484729	     -3.16224630	      1.09821206	      0.90925626	      0.47306255	     28.40917179	      0.76574652	    -15.49311558	     16.18131598	     16.18131598	     -1.23940930	      3.01787338	     -2.26921567	     -2.89355257	     -7.72303545	    -11.62644940	     16.75194903	     16.75194903	     23.31759123	     -2.83237903	     -1.90480660	    -11.20468101	      5.13838848	      2.54564492	    -19.61172026	    -13.04212428	     -5.77646385	     29.51047566	     46.51469104	      0.00000000	      0.00000000	     24.78301241	    -18.43328934	     -4.53548630	    115.02979057	     48.43697038	      0.00000000	      0.00000000
